<svg width="454" height="454" viewBox="0 0 454 454" fill="none" xmlns="http://www.w3.org/2000/svg">
<rect width="454" height="454" rx="50" fill="url(#paint0_linear_57_16)"/>
<path d="M203.339 100.303C203.719 100.288 204.099 100.275 204.479 100.264C212.66 100.029 222.576 100.529 230.491 100.225C256.536 99.2217 254.291 100.765 265.78 122.06L291.339 169.946L353.136 285.119C362.877 303.275 372.746 321.36 382.434 339.547C384.465 343.36 385.446 347.811 381.938 351.233C378.544 354.543 373.485 354.132 369.084 354.114L334.802 354.125C332.625 354.128 330.405 354.167 328.237 354.131C324.581 354.007 320.509 354.399 316.909 353.729C312.235 352.858 308.153 349.427 305.938 345.318C303.578 340.938 301.319 336.578 299.024 332.199L286.454 308.293L246.47 232.253L206.849 156.639C200.814 145.074 194.699 133.468 188.714 121.87C187.993 120.474 187.51 118.636 187.386 117.084C187.088 113.082 188.407 109.127 191.047 106.104C194.381 102.272 198.39 100.676 203.339 100.303Z" fill="#FEFEFE"/>
<path d="M144.023 228.296C146.554 228.033 151.975 228.18 154.769 228.179L174.834 228.176L208.009 228.175C213.765 228.176 219.531 228.146 225.288 228.201C226.715 228.215 227.748 228.286 229.058 228.834C231.203 229.731 235.379 233.994 234.054 236.458C232.052 237.411 227.078 236.836 224.615 237.028C217.211 237.607 210.981 239.299 205.429 244.46C200.531 249.013 197.935 254.969 194.861 260.813L186.14 277.255L150.16 344.814C142.969 355.211 134.992 354.173 123.642 354.132L105.874 354.113L88.1881 354.139C84.8391 354.147 81.3811 354.23 78.0391 354.027C76.1841 353.914 74.4691 353.48 72.9217 352.413C69.8851 350.319 67.7796 346.072 69.7927 342.595C73.2919 335.824 76.9801 329.159 80.6011 322.454L102.728 281.371L117.361 254.198C123.971 241.804 128.072 230.24 144.023 228.296Z" fill="#FEFEFE"/>
<defs>
<linearGradient id="paint0_linear_57_16" x1="422.066" y1="426.987" x2="30.5483" y2="28.7545" gradientUnits="userSpaceOnUse">
<stop stop-color="#4461FE"/>
<stop offset="1" stop-color="#AC88FD"/>
</linearGradient>
</defs>
</svg>
