<svg width="454" height="454" viewBox="0 0 454 454" fill="none" xmlns="http://www.w3.org/2000/svg">
<rect width="454" height="454" rx="50" fill="white"/>
<path d="M205.59 113.272C205.931 113.258 206.272 113.247 206.613 113.237C213.957 113.026 222.858 113.475 229.963 113.202C253.342 112.301 251.327 113.686 261.64 132.802L284.583 175.787L340.055 279.172C348.799 295.47 357.658 311.704 366.355 328.029C368.178 331.452 369.058 335.448 365.909 338.519C362.863 341.491 358.322 341.122 354.371 341.106L323.598 341.115C321.644 341.118 319.651 341.153 317.705 341.121C314.423 341.009 310.768 341.361 307.536 340.76C303.34 339.978 299.676 336.898 297.688 333.21C295.569 329.278 293.542 325.364 291.482 321.433L280.198 299.974L244.306 231.717L208.74 163.842C203.323 153.46 197.834 143.042 192.462 132.631C191.814 131.378 191.381 129.728 191.269 128.335C191.002 124.743 192.186 121.193 194.556 118.479C197.549 115.039 201.147 113.607 205.59 113.272Z" fill="url(#paint0_linear_62_39)"/>
<path d="M152.345 228.165C154.617 227.929 159.483 228.061 161.991 228.06L180.002 228.057L209.782 228.056C214.949 228.057 220.125 228.03 225.292 228.08C226.573 228.092 227.501 228.156 228.676 228.648C230.602 229.453 234.351 233.28 233.161 235.492C231.364 236.347 226.899 235.831 224.688 236.003C218.042 236.523 212.45 238.042 207.466 242.675C203.069 246.762 200.739 252.108 197.979 257.354L190.151 272.113L157.854 332.757C151.398 342.09 144.238 341.159 134.05 341.122L118.1 341.105L102.224 341.128C99.218 341.135 96.1139 341.21 93.114 341.028C91.4488 340.926 89.9094 340.537 88.5203 339.579C85.7945 337.699 83.9045 333.887 85.7116 330.766C88.8526 324.688 92.1634 318.705 95.4138 312.686L115.276 275.808L128.411 251.416C134.345 240.29 138.026 229.91 152.345 228.165Z" fill="url(#paint1_linear_62_39)"/>
<defs>
<linearGradient id="paint0_linear_62_39" x1="355.566" y1="327.56" x2="164.249" y2="176.778" gradientUnits="userSpaceOnUse">
<stop stop-color="#4461FE"/>
<stop offset="1" stop-color="#AC88FD"/>
</linearGradient>
<linearGradient id="paint1_linear_62_39" x1="222.952" y1="334.432" x2="129.287" y2="209.477" gradientUnits="userSpaceOnUse">
<stop stop-color="#4461FE"/>
<stop offset="1" stop-color="#AC88FD"/>
</linearGradient>
</defs>
</svg>
